<?xml version="1.0" encoding="utf-8"?>
<!-- Generator: Adobe Illustrator 21.0.0, SVG Export Plug-In . SVG Version: 6.00 Build 0)  -->
<svg version="1.1" id="Слой_1" xmlns="http://www.w3.org/2000/svg" xmlns:xlink="http://www.w3.org/1999/xlink" x="0px" y="0px"
	 viewBox="0 0 51.6 40" style="enable-background:new 0 0 51.6 40;" xml:space="preserve">
<style type="text/css">
	.st0{fill:#FFFFFF;}
</style>
<g id="base">
	<path id="_Compound_Path_" class="st0" d="M9.4,39.9v-2.6c0.1-0.9-0.6-1.6-1.5-1.7c-0.1,0-0.1,0-0.2,0c-0.6,0-1.2,0.2-1.5,0.8
		c-0.3-0.5-0.8-0.8-1.4-0.8c-0.5,0-1,0.2-1.2,0.6v-0.5H2.7v4.2h0.9v-2.4c-0.1-0.5,0.3-1,0.9-1.1h0.1c0.6,0,0.9,0.4,0.9,1.1v2.4h0.9
		v-2.4c-0.1-0.5,0.3-1,0.9-1.1h0.1c0.6,0,0.9,0.4,0.9,1.1v2.4H9.4z M23.2,35.7h-1.5v-1.3h-1v1.3h-0.9v0.8h0.9v1.9
		c0,1,0.4,1.6,1.5,1.6c0.4,0,0.8-0.1,1.2-0.3l-0.3-0.8c-0.2,0.1-0.5,0.2-0.8,0.2c-0.5,0-0.6-0.3-0.6-0.7v-1.9h1.5L23.2,35.7z
		 M31,35.6c-0.5,0-0.9,0.2-1.1,0.6v-0.5H29v4.2h0.9v-2.4c0-0.7,0.3-1.1,0.9-1.1c0.2,0,0.4,0,0.6,0.1l0.3-0.9
		C31.5,35.6,31.2,35.6,31,35.6L31,35.6z M19.2,36c-0.5-0.3-1.1-0.5-1.7-0.4c-1.1,0-1.8,0.5-1.8,1.3c0,0.7,0.5,1.1,1.5,1.2l0.4,0.1
		c0.5,0.1,0.7,0.2,0.7,0.4s-0.3,0.5-1,0.5c-0.5,0-1-0.1-1.4-0.4l-0.4,0.7c0.5,0.4,1.2,0.6,1.8,0.5c1.2,0,1.9-0.6,1.9-1.4
		s-0.6-1.1-1.5-1.3l-0.4-0.1c-0.4,0-0.7-0.1-0.7-0.4s0.3-0.5,0.8-0.5s0.9,0.1,1.3,0.4L19.2,36z M43.8,35.6c-0.5,0-0.9,0.2-1.1,0.6
		v-0.5h-0.9v4.2h0.9v-2.4c0-0.7,0.3-1.1,0.9-1.1c0.2,0,0.4,0,0.6,0.1l0.3-0.9C44.3,35.6,44,35.6,43.8,35.6L43.8,35.6z M32,37.8
		c0,1.2,0.9,2.2,2.1,2.2c0.1,0,0.1,0,0.2,0c0.6,0,1.1-0.2,1.5-0.5l-0.4-0.7c-0.3,0.2-0.7,0.4-1.1,0.4c-0.7-0.1-1.3-0.7-1.2-1.5
		c0.1-0.7,0.6-1.2,1.2-1.2c0.4,0,0.8,0.1,1.1,0.4l0.4-0.7c-0.4-0.3-1-0.5-1.5-0.5C33.1,35.6,32.1,36.5,32,37.8
		C32,37.7,32,37.7,32,37.8L32,37.8z M40.6,37.8v-2.1h-0.9v0.5c-0.3-0.4-0.8-0.6-1.3-0.6c-1.2,0.1-2.1,1.2-2,2.4c0.1,1.1,0.9,1.9,2,2
		c0.5,0,1-0.2,1.3-0.6v0.5h0.9V37.8z M37.2,37.8c0-0.7,0.6-1.2,1.3-1.2s1.2,0.6,1.2,1.3s-0.6,1.2-1.3,1.2S37.2,38.6,37.2,37.8
		L37.2,37.8z M26,35.6c-1.2,0-2.2,1-2.2,2.2s1,2.2,2.2,2.2c0.6,0,1.3-0.2,1.7-0.6l-0.4-0.7c-0.3,0.3-0.8,0.4-1.2,0.4
		c-0.6,0.1-1.2-0.4-1.3-1H28c0-0.1,0-0.2,0-0.3c0.1-1.1-0.7-2.1-1.8-2.2C26.2,35.6,26.1,35.6,26,35.6L26,35.6z M26,36.4
		c0.6,0,1,0.4,1.1,1h-2.2C25,36.8,25.5,36.4,26,36.4L26,36.4z M49.1,37.8V34h-0.9v2.2c-0.3-0.4-0.8-0.6-1.3-0.6
		c-1.2,0.1-2.1,1.2-2,2.4c0.1,1.1,0.9,1.9,2,2c0.5,0,1-0.2,1.3-0.6v0.5h0.9V37.8z M45.7,37.8c0-0.7,0.6-1.2,1.3-1.2s1.2,0.6,1.2,1.3
		s-0.6,1.2-1.3,1.2S45.6,38.6,45.7,37.8L45.7,37.8L45.7,37.8z M14.6,37.8v-2.1h-0.9v0.5c-0.3-0.4-0.8-0.6-1.3-0.6
		c-1.2,0.1-2.1,1.2-2,2.4c0.1,1.1,0.9,1.9,2,2c0.5,0,1-0.2,1.3-0.6v0.5h0.9V37.8z M11.2,37.8c0-0.7,0.6-1.2,1.3-1.2s1.2,0.6,1.2,1.3
		s-0.6,1.2-1.3,1.2C11.8,39.1,11.2,38.6,11.2,37.8L11.2,37.8z"/>
	<g id="_Group_">
		<rect x="18.9" y="3.4" class="st0" width="13.9" height="25.1"/>
		<path id="_Path_" class="st0" d="M19.7,15.9c0-4.9,2.2-9.5,6.1-12.5C18.9-2,8.9-0.8,3.4,6.1C-2,13-0.8,23,6.1,28.5
			c5.8,4.5,13.9,4.5,19.7,0C21.9,25.5,19.7,20.8,19.7,15.9z"/>
		<path class="st0" d="M51.6,15.9c0,8.8-7.1,15.9-15.9,15.9c-3.6,0-7-1.2-9.8-3.4c6.8-5.4,8-15.4,2.6-22.3c-0.8-1-1.7-1.9-2.7-2.7
			c6.9-5.4,17-4.2,22.4,2.7C50.4,8.9,51.6,12.4,51.6,15.9z"/>
	</g>
</g>
</svg>
