<?xml version="1.0" encoding="utf-8"?>
<!-- Generator: Adobe Illustrator 23.0.1, SVG Export Plug-In . SVG Version: 6.00 Build 0)  -->
<svg version="1.1" id="Layer_1" xmlns="http://www.w3.org/2000/svg" xmlns:xlink="http://www.w3.org/1999/xlink" x="0px" y="0px"
	 viewBox="0 0 450.3 103.3" style="enable-background:new 0 0 450.3 103.3;" xml:space="preserve">
<style type="text/css">
	.st0{fill:url(#SVGID_1_);}
</style>
<linearGradient id="SVGID_1_" gradientUnits="userSpaceOnUse" x1="109.9" y1="-782.8" x2="360.25" y2="-532.45" gradientTransform="matrix(1 0 0 -1 0 -592.6)">
	<stop  offset="2.131116e-07" style="stop-color:#ED7D27"/>
	<stop  offset="1" style="stop-color:#E43421"/>
</linearGradient>
<path class="st0" d="M0,80.3h11.5V69.8H0V80.3z M16.4,80.3h11.5V59.6H16.4V80.3z M32.8,80.3h11.5V49.4H32.8V80.3z M49.2,80.3h11.5
	V39.2H49.2V80.3z M109.5,66.9c0-7.3-6.2-13.3-13.7-13.3H87c-1,0-3.1-0.5-3.1-2.4c0-2,2.1-2.6,3.1-2.6h17.8V39H85.7
	c-7.3,0-13.3,5.8-13.3,12.9s6,12.9,13.3,12.9h8.9c1.2,0,3.5,0.6,3.5,3s-2.2,2.9-3.5,2.9H76v9.6h19.8
	C103.3,80.2,109.5,74.2,109.5,66.9 M146.4,59.7c0,6-4.9,10.8-10.8,10.8c-6,0-10.8-4.9-10.8-10.8s4.9-10.8,10.8-10.8
	C141.5,48.8,146.4,53.7,146.4,59.7 M157.9,59.7c0-12.3-10-22.3-22.3-22.3c-5.9,0-11.2,2.3-15.2,6V39h-7.2v64.3h11.5V79.2
	c3.2,1.8,6.9,2.8,10.8,2.8C147.9,82,157.9,72,157.9,59.7 M194.1,59.7c0,6-4.9,10.8-10.8,10.8c-6,0-10.9-4.9-10.9-10.8
	s4.9-10.8,10.9-10.8C189.3,48.8,194.1,53.7,194.1,59.7 M205.6,59.7c0-12.3-10-22.3-22.3-22.3S161,47.4,161,59.7S171,82,183.3,82
	S205.6,72,205.6,59.7 M233,49.1h4.2V37.6H233c-5.9,0-11.2,2.3-15.2,6v-4.3h-7.2v41.2h11.5V60l0,0C222.1,53.9,227,49.1,233,49.1
	 M252.8,48.8h8.9V37.3h-8.9V17.8h-11.5v62.4h11.5V48.8z M299.8,59.7c0,6-4.9,10.8-10.8,10.8c-6,0-10.8-4.9-10.8-10.8
	s4.9-10.8,10.8-10.8C295,48.8,299.8,53.7,299.8,59.7 M311.3,59.7c0-12.3-10-22.3-22.3-22.3c-4,0-7.8,1.1-11,2.9V0h-11.5v80.1h7.2
	v-4.2c4,3.8,9.4,6.1,15.3,6.1C301.3,82,311.3,72,311.3,59.7 M348.7,59.7c0,6-4.9,10.8-10.8,10.8c-6,0-10.8-4.9-10.8-10.8
	s4.9-10.8,10.8-10.8C343.8,48.8,348.7,53.7,348.7,59.7 M353,80.1h7.2v-41H353v4.3c-4-3.7-9.3-6-15.2-6c-12.3,0-22.3,10-22.3,22.3
	s10,22.3,22.3,22.3c5.9,0,11.2-2.3,15.2-6V80.1z M392.4,80.2h11.5V56.9c0-10.7-8.7-19.4-19.5-19.4c-4.7,0-8.9,1.6-12.3,4.4V39h-7.2
	v15.5V80v0.1h11.5V56.7c0-4.4,3.6-8,8-8s8,3.6,8,8V80.2z M435.5,58l12.8-19h-13.9l-9,13.3h-5V0h-11.5v80.1h11.5V63.8h5l11,16.3h13.9
	L435.5,58z"/>
</svg>
