<?xml version="1.0" encoding="utf-8"?>
<!-- Generator: Adobe Illustrator 21.0.0, SVG Export Plug-In . SVG Version: 6.00 Build 0)  -->
<svg version="1.1" id="Слой_1" xmlns="http://www.w3.org/2000/svg" xmlns:xlink="http://www.w3.org/1999/xlink" x="0px" y="0px"
	 viewBox="0 0 80 40" style="enable-background:new 0 0 80 40;" xml:space="preserve">
<style type="text/css">
	.st0{fill:#00579F;}
	.st1{fill:#FAA61A;}
</style>
<g id="base">
	<g id="g4158">
		<polygon id="polygon9" class="st0" points="34.7,32.6 28.2,32.6 32.2,7.5 38.7,7.5 		"/>
		<path id="path11" class="st0" d="M58.2,8.1c-1.9-0.7-3.8-1.1-5.8-1.1c-6.4,0-10.9,3.4-10.9,8.3c0,3.6,3.2,5.6,5.7,6.8
			s3.4,2,3.4,3.1c0,1.7-2,2.5-3.9,2.5c-2.1,0.1-4.2-0.4-6.1-1.3L39.6,26l-0.9,5.6c2.3,0.9,4.8,1.3,7.2,1.3c6.8,0,11.2-3.4,11.3-8.6
			c0-2.9-1.7-5-5.4-6.8c-2.3-1.1-3.7-1.9-3.7-3.1s1.2-2.2,3.7-2.2c1.7,0,3.3,0.3,4.8,1l0.6,0.3L58.2,8.1L58.2,8.1z"/>
		<path id="path13" class="st0" d="M66.8,23.7l2.6-7c0,0,0.5-1.5,0.8-2.4l0.4,2.2c0,0,1.2,6,1.5,7.2L66.8,23.7z M74.8,7.5h-5
			c-1.5-0.2-2.9,0.7-3.4,2.1l-9.6,23h6.8l1.4-3.8h8.3c0.2,0.9,0.8,3.8,0.8,3.8h6L74.8,7.5L74.8,7.5z"/>
		<path id="path15" class="st0" d="M22.8,7.5l-6.3,17.1l-0.7-3.5c-1.6-4.5-4.8-8.2-9-10.5l5.8,21.9h6.9l10.2-25L22.8,7.5L22.8,7.5z"
			/>
		<path id="path17" class="st1" d="M10.5,7.5H0.1L0,8c8.1,2.1,13.5,7.1,15.7,13.1L13.5,9.6C13.1,8,12,7.6,10.5,7.5L10.5,7.5z"/>
	</g>
</g>
</svg>
