<svg xmlns="http://www.w3.org/2000/svg" xmlns:xlink="http://www.w3.org/1999/xlink"><defs><style>.cls-1{fill:#8966ac}</style><path id="b" d="M35.37 31.7C27.97 31.7 22 29 22 25.64v-1.3c0-3.36 5.98-6.07 13.37-6.07 1.3 0 2.54.08 3.72.23v12.96a28.64 28.64 0 0 1-3.74.24zm0 6.77c-7.4 0-13.37-2.7-13.37-6.06v-1.3c0-.43.1-.85.28-1.25 1.26 2.76 6.64 4.82 13.08 4.82 1.3 0 2.55-.08 3.73-.24v3.8a28.64 28.64 0 0 1-3.74.24zm3.72 3.03v1.3c0 .75.16 1.46.5 2.13-1.34.2-2.76.3-4.24.3-7.38 0-13.36-2.7-13.36-6.05v-1.32c0-.42.1-.84.28-1.24 1.26 2.75 6.64 4.82 13.08 4.82 1.3 0 2.55-.08 3.73-.24v.3zM54.62 8C62.03 8 68 10.7 68 14.06v1.32c0 3.34-5.98 6.06-13.37 6.06s-13.36-2.72-13.36-6.06v-1.32C41.27 10.7 47.25 8 54.63 8zm0 16.4c6.45 0 11.82-2.06 13.1-4.8.17.4.27.8.27 1.23v1.3c0 3.36-5.98 6.07-13.37 6.07s-13.36-2.7-13.36-6.06v-1.3c0-.44.1-.85.28-1.25 1.26 2.74 6.64 4.8 13.1 4.8zm0 6.78c6.45 0 11.82-2.07 13.1-4.82.17.4.27.8.27 1.24v1.3c0 3.36-5.98 6.07-13.37 6.07s-13.36-2.7-13.36-6.06v-1.3c0-.43.1-.84.28-1.25 1.26 2.76 6.64 4.82 13.1 4.82zm0 7.13c6.45 0 11.82-2.06 13.1-4.8.17.4.27.8.27 1.23v1.3c0 3.36-5.98 6.08-13.37 6.08s-13.36-2.7-13.36-6.06v-1.3c0-.44.1-.85.28-1.25 1.26 2.74 6.64 4.8 13.1 4.8zm0 6.78c6.45 0 11.82-2.07 13.1-4.82.17.4.27.8.27 1.24v1.3c0 3.36-5.98 6.07-13.37 6.07s-13.36-2.7-13.36-6.06v-1.3c0-.43.1-.84.28-1.24 1.26 2.75 6.64 4.82 13.1 4.82z"/><filter id="a" width="145.7%" height="151.4%" x="-22.8%" y="-25.7%" filterUnits="objectBoundingBox"><feMorphology radius="1" operator="dilate" in="SourceAlpha" result="shadowSpreadOuter1"/><feOffset in="shadowSpreadOuter1" result="shadowOffsetOuter1"/><feMorphology radius="3" in="SourceAlpha" result="shadowInner"/><feOffset in="shadowInner" result="shadowInner"/><feComposite in="shadowOffsetOuter1" in2="shadowInner" operator="out" result="shadowOffsetOuter1"/><feGaussianBlur stdDeviation="2.5" in="shadowOffsetOuter1" result="shadowBlurOuter1"/><feColorMatrix values="0 0 0 0 0.0352941176 0 0 0 0 0.925490196 0 0 0 0 0.905882353 0 0 0 0.7 0" in="shadowBlurOuter1"/></filter><path id="a" d="M0 0h9.52v9.52H0z"/><style>.cls-1{isolation:isolate}.cls-2{opacity:.75;mix-blend-mode:screen}.cls-3{fill:#ffc850}</style><style>.cls-1{isolation:isolate}.cls-2{opacity:.75;mix-blend-mode:screen}.cls-3{fill:none;stroke:#ffc850;stroke-miterlimit:10;stroke-width:15px}</style></defs><symbol id="icon-apple" viewBox="0 0 305 305"><path d="M40.74 112.12c-25.8 44.74-9.4 112.65 19.12 153.82C74.1 286.52 88.5 305 108.24 305c.37 0 .74 0 1.13-.02 9.27-.37 15.97-3.23 22.45-6 7.27-3.1 14.8-6.3 26.6-6.3 11.22 0 18.4 3.1 25.3 6.1 6.84 2.96 13.88 6.02 24.27 5.82 22.22-.4 35.87-20.35 47.9-37.94 12.58-18.36 18.88-36.2 21-43l.1-.28a2.5 2.5 0 0 0-1.33-3.06c-.03-.02-.15-.07-.18-.08-3.93-1.6-38.27-16.84-38.63-58.36-.34-33.74 25.76-51.6 31-54.84l.24-.15a2.5 2.5 0 0 0 .72-3.52C250.8 77 223.2 73.04 212.08 72.56a50.04 50.04 0 0 0-4.95-.24c-13.06 0-25.56 4.93-35.6 8.9-6.95 2.73-12.94 5.1-17.07 5.1-4.64 0-10.67-2.4-17.65-5.17-9.32-3.7-19.9-7.9-31.1-7.9-.25 0-.52 0-.78 0-26.03.4-50.62 15.3-64.18 38.87zM212.1 0c-15.76.64-34.67 10.35-45.97 23.58-9.6 11.13-19 29.68-16.52 48.38a2.5 2.5 0 0 0 2.3 2.17c1.06.08 2.15.12 3.23.12 15.4 0 32.04-8.52 43.4-22.25 11.94-14.5 18-33.1 16.16-49.77A2.52 2.52 0 0 0 212.1 0z"/></symbol><symbol id="icon-arr-circle" viewBox="0 0 136 122"><path d="M67.27 36.2a24 24 0 1 0 24 24 24 24 0 0 0-24-24zm12.45 24.65l-17.6 12a.82.82 0 0 1-.45.14.78.78 0 0 1-.37-.1.8.8 0 0 1-.43-.7v-24a.8.8 0 0 1 .43-.72.78.78 0 0 1 .82.05l17.6 12a.8.8 0 0 1 0 1.32z" class="cls-1"/></symbol><symbol id="icon-arrow-accardeon" viewBox="0 0 11.5 7.1"><style>.st0{fill:#ec074b}</style><path d="M0 7.1L5.8 0l5.7 7.1" class="st0"/></symbol><symbol id="icon-arrow-back" viewBox="0 0 23 17"><path fill-rule="evenodd" d="M3.63 9l5.76 5.77-1.35 1.34L0 8.06l1-1V7h.05l7-7L9.4 1.34 3.72 7H23v2z"/></symbol><symbol id="icon-arrow-simple" viewBox="0 0 12.99 17.89"><title>arrow_simple</title><path d="M12 1L1 8.9zM1 8.9l11 8z"/></symbol><symbol id="icon-arrow" viewBox="0 0 11.2 17.5"><style>.st0{fill:none;stroke:#fff;stroke-width:2}</style><g id="Page-1"><g id="cosmolot-main1"><g id="arrow-copy"><path id="Path-2" d="M10.5.7l-9 8 9 8" class="st0"/></g></g></g></symbol><symbol id="icon-cashbox" viewBox="0 0 512 512"><title>cashbox</title><path d="M437 75A256 256 0 0 0 75 437 256 256 0 0 0 437 75zM256 482C131.38 482 30 380.62 30 256S131.38 30 256 30s226 101.38 226 226-101.38 226-226 226zM272.07 241h-32.14a33.2 33.2 0 0 1 0-66.4h64.27a15 15 0 0 0 0-30H271v-33.2a15 15 0 1 0-30 0v33.2h-1.07a63.2 63.2 0 0 0 0 126.4h32.14a33.2 33.2 0 0 1 0 66.4H207.8a15 15 0 0 0 0 30H241v33.2a15 15 0 0 0 30 0v-33.2h1.07a63.2 63.2 0 0 0 0-126.4z"/></symbol><symbol id="icon-clock" viewBox="0 0 372.96 372.96"><path d="M186.48 0C83.48 0 0 83.5 0 186.48s83.5 186.48 186.48 186.48 186.48-83.5 186.48-186.48C372.83 83.55 289.42.13 186.48 0zm8 356.56v-32.8a8 8 0 0 0-16 0v32.8c-87.72-4.2-157.9-74.36-162.08-162.08h32.8a8 8 0 0 0 0-16H16.4C20.6 90.76 90.76 20.58 178.48 16.4v32.8a8 8 0 0 0 16 0V16.4c87.72 4.2 157.9 74.36 162.08 162.08h-32.8a8 8 0 0 0 0 16h32.88c-4.2 87.75-74.4 157.93-162.16 162.08zM270.88 260.88l-76.4-77.68v-80.72a8 8 0 0 0-16 0v84a8 8 0 0 0 2.32 5.6l78.64 80a8 8 0 1 0 11.44-11.2z"/></symbol><symbol id="icon-close" viewBox="0 0 18 18"><path fill-rule="evenodd" d="M9 7.62L16.6 0 18 1.4l-7.62 7.6L18 16.6 16.6 18 9 10.38 1.38 18 0 16.6 7.62 9 0 1.38 1.4 0z"/></symbol><symbol id="icon-coins" viewBox="0 0 58 53"><g fill-rule="evenodd" transform="translate(-16 -2)"><use filter="url(#a)" xlink:href="#b"/><path d="M38.1 30.57V19.4c-.9-.1-1.8-.13-2.73-.13-6.9 0-12.37 2.48-12.37 5.06v1.3c0 2.6 5.47 5.07 12.37 5.07.92 0 1.83-.04 2.72-.13zm0 6.77v-1.8c-.9.1-1.8.13-2.73.13-5.2 0-9.85-1.3-12.37-3.38v.1c0 2.6 5.47 5.07 12.37 5.07.92 0 1.83-.04 2.72-.13zm0 4.98a30.04 30.04 0 0 1-2.73.12c-5.2 0-9.85-1.3-12.37-3.38v.12c0 2.58 5.47 5.06 12.37 5.06.97 0 1.93-.05 2.87-.15a5.7 5.7 0 0 1-.15-1.3v-.48zM54.62 9c-6.9 0-12.36 2.48-12.36 5.06v1.32c0 2.58 5.47 5.06 12.36 5.06S67 17.96 67 15.38v-1.32C67 11.48 61.53 9 54.63 9zM42.27 22.02v.12c0 2.58 5.47 5.07 12.37 5.07S67 24.73 67 22.15v-.12c-2.52 2.1-7.17 3.4-12.37 3.4S44.8 24.1 42.27 22zm0 6.77v.1c0 2.6 5.47 5.07 12.37 5.07S67 31.5 67 28.9v-.1c-2.52 2.08-7.17 3.37-12.37 3.37-5.2 0-9.84-1.3-12.36-3.38zm0 7.12v.12c0 2.58 5.47 5.07 12.37 5.07S67 38.63 67 36.05v-.12c-2.52 2.1-7.17 3.4-12.37 3.4-5.2 0-9.84-1.3-12.36-3.4zm0 6.77v.1c0 2.6 5.47 5.07 12.37 5.07S67 45.4 67 42.8v-.1c-2.52 2.08-7.17 3.38-12.37 3.38-5.2 0-9.84-1.3-12.36-3.4z"/></g></symbol><symbol id="icon-compass" viewBox="0 0 414.5 414.5"><title>compass</title><path d="M207.25.25c-114.32 0-207 92.68-207 207s92.68 207 207 207 207-92.68 207-207S321.52.38 207.25.25zm0 397.44c-105.18 0-190.44-85.27-190.44-190.45S102.08 16.8 207.26 16.8 397.7 102.08 397.7 207.26 312.37 397.57 207.24 397.7zM325.07 89.43a8 8 0 0 0-9.6-1.3l-142.82 81.52c-.1.06-.13.15-.22.2a23.7 23.7 0 0 0-2.55 2.56c-.06.1-.15.14-.2.23L88.14 315.45a8 8 0 0 0 10.9 10.9l142.8-81.5c.1-.06.14-.15.23-.2a24.75 24.75 0 0 0 2.56-2.56c.05-.1.14-.14.2-.23l81.53-142.8a8 8 0 0 0-1.3-9.64zm-208.5 208.5l61.8-108.24 46.48 46.43zm119.56-73.08l-46.4-46.4L298 116.65zM79.25 199.25h-32a8 8 0 0 0 0 16h32a8 8 0 0 0 0-16zM367.25 199.25h-32a8 8 0 0 0 0 16h32a8 8 0 0 0 0-16zM207.25 87.25a8 8 0 0 0 8-8v-32a8 8 0 0 0-16 0v32a8 8 0 0 0 8 8zM207.25 327.25a8 8 0 0 0-8 8v32a8 8 0 0 0 16 0v-32a8 8 0 0 0-8-8z"/></symbol><symbol id="icon-cup" viewBox="0 0 512 512"><title>cup</title><path d="M497 37h-65.7c.24-7.27.37-14.6.37-22a15 15 0 0 0-15-15H95.33a15 15 0 0 0-15 15c0 7.35.13 14.68.37 22H15A15 15 0 0 0 0 52c0 67.2 17.57 130.62 49.46 178.56C81 277.9 123 305.06 168.36 307.72A154.57 154.57 0 0 0 200.82 335v66.66h-25.16a55.23 55.23 0 0 0-55.17 55.17V482h-1.07a15 15 0 0 0 0 30h273.14a15 15 0 0 0 0-30h-1.07v-25.17a55.23 55.23 0 0 0-55.17-55.17h-25.16V335a154 154 0 0 0 32.48-27.28c45.35-2.65 87.35-29.83 118.9-77.2C494.44 182.56 512 119.15 512 52a15 15 0 0 0-15-15zM74.44 213.9C48.14 174.34 32.67 122.63 30.32 67h52.06c5.4 68.46 21.48 131.75 46.6 182q6 12 12.52 22.67c-25-9.42-48-29.12-67.06-57.7zM361.5 456.82V482h-211v-25.17a25.2 25.2 0 0 1 25.17-25.17h160.66a25.2 25.2 0 0 1 25.17 25.17zm-80.33-55.17h-50.34V348a97.64 97.64 0 0 0 50.34 0zm9.3-89.32a14.86 14.86 0 0 0-1.96 1 70.07 70.07 0 0 1-65 0 14.46 14.46 0 0 0-2-1c-11.76-6.22-23.14-15.6-33.9-27.95a14.6 14.6 0 0 0-1.9-2.25c-10.7-12.68-20.7-28.28-29.9-46.64-27.56-55.12-43.48-127.6-45.3-205.5h291c-1.8 77.9-17.73 150.38-45.3 205.5-9.17 18.37-19.22 34-29.9 46.65a15.23 15.23 0 0 0-1.92 2.24c-10.76 12.33-22.14 21.72-33.9 27.94zm147.1-98.45c-19 28.58-42.12 48.28-67.07 57.7q6.5-10.68 12.5-22.67c25.12-50.23 41.2-113.52 46.6-182h52.06c-2.35 55.7-17.8 107.4-44.12 146.94z"/></symbol><symbol id="icon-diamond" viewBox="0 0 60.24 51.19"><title>diamond</title><path d="M30.12 50.94a.87.87 0 0 1-.7-.33L.47 16.23a.9.9 0 0 1 0-1.12L11.3.6a.9.9 0 0 1 .7-.35h36.22a.9.9 0 0 1 .72.36L59.8 15.1a.9.9 0 0 1 0 1.12l-29 34.4a.9.9 0 0 1-.7.32zM2.32 15.6l27.8 33 27.8-33L47.77 2.06h-35.3zM59.08 16.54H1.15a.9.9 0 1 1 0-1.8h57.93a.9.9 0 0 1 0 1.8zM30.12 50.94a1 1 0 0 1-.28 0 .9.9 0 0 1-.58-1.14l10.86-34.44a.9.9 0 0 1 1.72.55L31 50.3a.9.9 0 0 1-.86.64zM30.12 50.94a.9.9 0 0 1-.86-.64L18.4 15.9a.9.9 0 1 1 1.72-.54L31 49.76a.9.9 0 0 1-.6 1.13.9.9 0 0 1-.26 0zM19.25 16.54a.9.9 0 0 1-.8-.5L11.2 1.57a.9.9 0 0 1 1.63-.8l7.24 14.47a.9.9 0 0 1-.82 1.3zM19.25 16.54a.88.88 0 0 1-.54-.18.9.9 0 0 1-.16-1.26L29.4.6a.9.9 0 0 1 1.26-.16.9.9 0 0 1 .18 1.26L20 16.18a.92.92 0 0 1-.74.36zM41 16.54a.9.9 0 0 1-.73-.36L29.4 1.7a.9.9 0 0 1 .18-1.26.9.9 0 0 1 1.26.17L41.7 15.1a.9.9 0 0 1-.18 1.26.84.84 0 0 1-.54.18zM41 16.54a1 1 0 0 1-.4-.1.9.9 0 0 1-.4-1.2L47.4.73a.9.9 0 0 1 1.6.82l-7.2 14.5a.9.9 0 0 1-.82.48z"/></symbol><symbol id="icon-error" viewBox="0 0 9.522 9.522"><clipPath id="b"><use xlink:href="#a" overflow="visible"/></clipPath><path d="M4.76 6.37c.4 0 .72.32.72.72a.72.72 0 0 1-.72.7.72.72 0 0 1 0-1.43m-.6-4.7h1.2v4h-1.2v-4z" clip-path="url(#b)"/><circle cx="4.761" cy="4.761" r="4.511" clip-path="url(#b)"/></symbol><symbol id="icon-eye" viewBox="0 0 511.992 376.5"><path d="M256 333.17c-131.44 0-248.56-136.62-253.5-142.45-3.34-4-3.34-9.8 0-13.78C7.45 171.12 124.57 34.5 256 34.5c153.17 0 250.06 137.4 254.1 143.27a10.67 10.67 0 0 1-.62 12.95c-4.93 5.83-122.05 142.45-253.5 142.45M25.02 183.83c25.45 27.52 125.63 128 231 128 106.26 0 207-101.93 231.55-128.57C466.3 156.16 379.28 55.83 256 55.83c-105.52 0-205.6 100.46-231 128M256 269.17c-47.07 0-85.34-38.28-85.34-85.34S208.93 98.5 256 98.5s85.33 38.27 85.33 85.33-38.27 85.34-85.34 85.34m0-149.34c-35.3 0-64 28.72-64 64s28.7 64 64 64 64-28.7 64-64-28.72-64-64-64"/><path d="M417.75 11.5L94.25 365" class="path-line"/></symbol><symbol id="icon-eye_crossed" viewBox="0 0 32 32"><title/><path fill-rule="evenodd" d="M8.1 20.9C4.63 18.82 3 16 3 16s4-7 13-7c1.3 0 2.5.15 3.6.4l-.85.85A15.1 15.1 0 0 0 16 10c-8 0-11.8 6-11.8 6s1.5 2.4 4.64 4.16l-.73.73zm4.3 1.7c1.1.25 2.3.4 3.6.4 9 0 13-7 13-7s-1.62-2.83-5.1-4.9l-.75.75C26.3 13.6 27.8 16 27.8 16S24 22 16 22c-.98 0-1.9-.1-2.75-.25l-.85.85zm7.5-7.5a4 4 0 0 1-4.8 4.8l.9-.9a3 3 0 0 0 2.12-.88A3 3 0 0 0 19 16l.9-.9zm-3-3a4 4 0 0 0-4.8 4.8l.9-.9c0-.77.3-1.54.88-2.12A3 3 0 0 1 16 13l.9-.9zM24 7L7 24l1 1L25 8l-1-1z"/></symbol><symbol id="icon-facebook" viewBox="0 0 10 19"><path fill-rule="evenodd" d="M9.77.16V3.1H8c-.63 0-1.06.14-1.28.4-.22.27-.34.68-.34 1.2v2.12h3.27l-.43 3.3H6.38v8.47h-3.4V10.1H.1v-3.3h2.85V4.4c0-1.4.4-2.47 1.16-3.23C4.9.4 5.93.02 7.23.02c1.08 0 1.93.05 2.54.14z"/></symbol><symbol id="icon-fb" viewBox="0 0 11 20"><path fill-rule="evenodd" d="M10.26.3L7.7.27c-2.87 0-4.73 1.9-4.73 4.86v2.23H.4a.4.4 0 0 0-.4.4v3.25c0 .22.18.4.4.4h2.57v8.18c0 .22.18.4.4.4h3.36c.22 0 .4-.18.4-.4v-8.18h3c.23 0 .4-.18.4-.4V7.77a.4.4 0 0 0-.4-.4h-3v-1.9c0-.9.22-1.37 1.4-1.37h1.73c.22 0 .4-.18.4-.4v-3a.4.4 0 0 0-.4-.4z"/></symbol><symbol id="icon-google" viewBox="0 0 50 50"><path d="M26 48C13.3 48 3 37.68 3 25S13.3 2 26 2a22.95 22.95 0 0 1 15.5 6l.76.7-7.58 7.6-.7-.6A12.28 12.28 0 0 0 26 12.72c-6.77 0-12.28 5.5-12.28 12.27S19.22 37.27 26 37.27c4.87 0 8.73-2.5 10.55-6.74H25V20.18l22.55.03.17.8c1.17 5.58.23 13.8-4.54 19.67C39.24 45.53 33.46 48 26 48z"/></symbol><symbol id="icon-gplus" viewBox="0 0 56.6934 56.6934"><path d="M19.67 25.8c0 1.78 0 3.57 0 5.37 3 .1 6.02.05 9.03.1-1.32 6.66-10.4 8.83-15.2 4.47-4.93-3.82-4.7-12.2.43-15.75 3.6-2.87 8.7-2.16 12.28.32 1.42-1.3 2.74-2.7 4-4.15-2.97-2.38-6.64-4.08-10.53-3.9-8.13-.27-15.6 6.86-15.74 15-.52 6.63 3.85 13.15 10.02 15.5 6.15 2.37 14.03.75 17.96-4.77 2.6-3.5 3.16-7.98 2.85-12.2-5.03-.04-10.06-.03-15.08 0zM49.07 25.76c0-1.5-.02-3-.03-4.5h-4.48c-.02 1.5-.03 3-.04 4.5-1.5 0-3 .02-4.5.03v4.48l4.5.04c0 1.5 0 3 .03 4.5h4.5c0-1.5 0-3 .02-4.5 1.5-.02 3-.03 4.5-.04v-4.5c-1.5 0-3 0-4.5-.02z"/></symbol><symbol id="icon-letter" viewBox="0 0 35.2 25.6"><title>letter</title><path d="M34.4 0H.8a.8.8 0 0 0-.8.8v24a.8.8 0 0 0 .8.8h33.6a.8.8 0 0 0 .8-.8V.8a.8.8 0 0 0-.8-.8zm-.8 22.07l-9.9-9.9-1.14 1.12L33.26 24H1.94l10.7-10.7-1.12-1.14-9.9 9.9V1.6h32zM32 1.6L17.6 16 3.22 1.6H1.6v.65L17 17.68a.8.8 0 0 0 1.13 0L33.6 2.25V1.6z"/></symbol><symbol id="icon-login_btn" viewBox="0 0 512 467.19"><title>login_btn</title><path d="M278 272.2a15 15 0 0 0 23.64 12.27l54.78-38.62a15 15 0 0 0 0-24.52l-54.78-38.62A15 15 0 0 0 278 195v23.62H15a15 15 0 0 0 0 30h263zM278.4 0A233.6 233.6 0 0 0 76.08 116.78a15 15 0 1 0 26 15A203.56 203.56 0 0 1 278.4 30C390.68 30 482 121.33 482 233.6s-91.33 203.6-203.6 203.6A203.57 203.57 0 0 1 102 335.37a15 15 0 0 0-26 15 233.57 233.57 0 0 0 202.4 116.8c129.1 0 233.6-104.47 233.6-233.6S407.52 0 278.4 0z"/></symbol><symbol id="icon-logo" viewBox="0 0 211 25"><path d="M1 23.8H0V1h1v22.8zm2 0H2V1h1v22.8zm2 0H4V1h1v22.8zm2 0H6V1h1v22.8zm.58-11.4L13.36 1h1.1L8.62 12.4l5.84 11.4h-1.1L7.58 12.4zm2.23 0L15.6 1h1.1l-5.83 11.4 5.83 11.4h-1.1L9.8 12.4zm2.23 0L17.8 1h1.1l-5.83 11.4 5.82 11.4h-1.1l-5.77-11.4zm2.22 0L20 1h1.1l-5.82 11.4 5.83 11.4H20l-5.75-11.4zM75.9 5.43l-.82.57A11.35 11.35 0 0 0 71 2.33a11.37 11.37 0 0 0-9.8-.44 11.6 11.6 0 0 0-3.64 2.42A11.77 11.77 0 0 0 55.16 8a11.33 11.33 0 0 0 0 8.85 11.77 11.77 0 0 0 2.42 3.65 11.6 11.6 0 0 0 3.65 2.43 11.35 11.35 0 0 0 9.8-.45 11.5 11.5 0 0 0 4.06-3.65l.8.6a12.46 12.46 0 0 1-4.42 3.94 12.07 12.07 0 0 1-5.82 1.45 12.22 12.22 0 0 1-4.82-1 12.52 12.52 0 0 1-4-2.65 12.33 12.33 0 0 1-2.64-3.95 12.2 12.2 0 0 1 0-9.63 12.33 12.33 0 0 1 2.64-3.96 12.52 12.52 0 0 1 4-2.65 12.38 12.38 0 0 1 10.66.47 12.44 12.44 0 0 1 4.4 3.96zm-1.62 1.12l-.83.54a9.43 9.43 0 0 0-3.35-3A9.5 9.5 0 0 0 62 3.7a9.38 9.38 0 0 0-3 2 9.54 9.54 0 0 0-2 3 9.45 9.45 0 0 0 0 7.33 9.54 9.54 0 0 0 2 3 9.38 9.38 0 0 0 3 2 9.36 9.36 0 0 0 8.1-.37 9.36 9.36 0 0 0 3.36-3l.8.6a10.42 10.42 0 0 1-17.6-.67 10.16 10.16 0 0 1-1.4-5.2 10.2 10.2 0 0 1 1.4-5.23 10.4 10.4 0 0 1 3.8-3.8A10.16 10.16 0 0 1 65.65 2a10 10 0 0 1 4.9 1.24 10.43 10.43 0 0 1 3.72 3.3zm-1.66 1.1l-.82.54a7.5 7.5 0 0 0-2.64-2.37 7.44 7.44 0 0 0-9.94 2.83 7.22 7.22 0 0 0-1 3.73 7.44 7.44 0 0 0 11 6.55 7.47 7.47 0 0 0 2.64-2.38l.8.56a8.37 8.37 0 0 1-7 3.7 8.4 8.4 0 0 1-7.3-4.2 8.17 8.17 0 0 1-1.12-4.24 8.4 8.4 0 0 1 4.2-7.3A8.17 8.17 0 0 1 65.66 4a8.37 8.37 0 0 1 7 3.7l-.04-.04zM71 8.8l-.82.52a5.4 5.4 0 0 0-4.5-2.38 5.23 5.23 0 0 0-3.87 1.6 5.23 5.23 0 0 0-1.6 3.85 5.23 5.23 0 0 0 1.6 3.85 5.23 5.23 0 0 0 3.87 1.6 5.43 5.43 0 0 0 4.5-2.4L71 16a6.33 6.33 0 0 1-2.28 2 6.4 6.4 0 0 1-5.53.25 6.4 6.4 0 0 1-3.45-3.44 6.36 6.36 0 0 1 0-5 6.43 6.43 0 0 1 1.35-1.96 6.32 6.32 0 0 1 2.06-1.38 6.25 6.25 0 0 1 2.5-.46A6.4 6.4 0 0 1 71 8.8zM90.62 17.85h-1.1l-7.9-15V23.8h-1V1h1.1l8.9 16.85zm-8-11.68l1 1.9V23.8h-1V6.17zm10.25 11.68h-1.13L82.87 1H84l8.87 16.85zm-8.28-7.9l1 1.87v12h-1V9.94zM103 2.87l-7.9 15H94L85.1 1h1.13l8.32 15.8 8.3-15.8H104v22.8h-1V2.88zM86.57 13.72l1 1.87v8.2h-1V13.72zm6.64-.87l-.57-1L98.36 1h1.13l-6.3 11.85zM94.36 15l-.56-1 6.82-13h1.1l-7.37 14zm2.7.47l1-1.87v10.2H97l.04-8.33zm2-3.8l1-1.87v14H99l.04-12.13zm2-3.75l1-1.88V23.8h-1V7.92zM161.87 23.8h-1.07l-8.48-21.47-8.5 21.47h-1.05l9-22.8h1.07l9.03 22.8zM151.63 6l.56-1.27 7.54 19.12h-1.06L151.63 6zm-1.06 2.7l.52-1.35 6.5 16.5h-1.07L150.57 8.7zm-1 2.77L150 10l5.43 13.77h-1.06l-4.8-12.3zM141.7 23.8h-1.06l9-22.8h1.06l-9 22.8zm-2.14 0h-1.06l9-22.8h1.06l-9 22.8zm-2.12 0h-1.07l9-22.8h1.06l-9 22.8zM193.16 2V1h17.3v1h-17.3zm0 2V3h17.3v1h-17.3zm0 2V5h17.3v1h-5.18v17.8h-1V6h-1v17.8h-1V6h-1v17.8h-1V6h-1v17.8h-1V6h-5.12zM36.5 24.77c-6.84 0-12.38-5.54-12.38-12.38C24.12 5.54 29.66 0 36.5 0c6.84 0 12.38 5.55 12.38 12.4 0 6.83-5.54 12.36-12.38 12.37zm0-23.84c-6.33.02-11.45 5.16-11.44 11.5 0 6.33 5.16 11.45 11.5 11.44C42.87 23.87 48 18.72 48 12.4A11.47 11.47 0 0 0 36.5.92zM36.5 22.87c-5.8 0-10.47-4.7-10.46-10.5 0-5.78 4.7-10.46 10.5-10.46C42.3 1.9 47 6.6 47 12.4a10.5 10.5 0 0 1-10.5 10.47zm0-20a9.56 9.56 0 1 0 9.56 9.55 9.56 9.56 0 0 0-9.56-9.58v.03zM36.5 21a8.57 8.57 0 1 1 8.57-8.58A8.6 8.6 0 0 1 36.5 21zm0-16.23a7.66 7.66 0 1 0 7.66 7.65 7.66 7.66 0 0 0-7.66-7.68v.03zM36.5 19.06a6.67 6.67 0 1 1 0-13.34 6.67 6.67 0 0 1 0 13.34zm0-12.42a5.76 5.76 0 1 0 0 11.52 5.76 5.76 0 0 0 0-11.52zM36.5 17.16a4.77 4.77 0 1 1 0-9.54 4.77 4.77 0 0 1 0 9.54zm0-8.62a3.86 3.86 0 1 0-.02 7.72 3.86 3.86 0 0 0 .02-7.72zM176.94 24.77A12.38 12.38 0 1 1 189.3 12.4c0 6.82-5.53 12.36-12.36 12.37zm0-23.84A11.47 11.47 0 1 0 188.4 12.4c0-6.33-5.14-11.46-11.46-11.47zM176.94 22.87A10.48 10.48 0 1 1 187.4 12.4c0 5.77-4.68 10.46-10.46 10.47zm0-20a9.56 9.56 0 1 0 9.56 9.55 9.56 9.56 0 0 0-9.56-9.58v.03zM176.94 21a8.57 8.57 0 1 1 8.57-8.58 8.58 8.58 0 0 1-8.56 8.58zm0-16.23a7.66 7.66 0 1 0 7.66 7.65 7.66 7.66 0 0 0-7.66-7.68v.03zM176.94 19.06a6.67 6.67 0 1 1-.02-13.34 6.67 6.67 0 0 1 .02 13.34zm0-12.42a5.76 5.76 0 1 0-.02 11.52 5.76 5.76 0 0 0 .02-11.52zM121.3 24.77c-6.84 0-12.38-5.54-12.38-12.38 0-6.85 5.54-12.4 12.38-12.4 6.84 0 12.38 5.55 12.38 12.4 0 6.82-5.54 12.36-12.38 12.37zm0-23.84a11.47 11.47 0 1 0 11.47 11.46c0-6.34-5.14-11.47-11.47-11.47zM121.3 23a10.56 10.56 0 1 1 10.56-10.56c0 5.83-4.73 10.55-10.56 10.56zm0-20.2a9.65 9.65 0 1 0 9.7 9.6 9.66 9.66 0 0 0-9.7-9.65v.05zM121.3 21.13a8.74 8.74 0 1 1 8.7-8.74 8.75 8.75 0 0 1-8.7 8.73zm0-16.56a7.83 7.83 0 1 0-.02 15.66 7.83 7.83 0 0 0 .02-15.66z"/></symbol><symbol id="icon-magnifier" viewBox="0 0 20 20"><style>.st0{fill:#8000ff}</style><path d="M12.7 11.7c2.1-2.6 1.6-6.4-.9-8.4s-6.4-1.6-8.5 1-1.6 6.4.9 8.4c2.2 1.7 5.3 1.7 7.5 0l.5-.4c.1 0 .5-.6.5-.6zm7 6.8c.3.3.3.9 0 1.3s-.9.3-1.3 0L13 14.2C9.5 17 4.5 16.4 1.7 13S-.4 4.5 3 1.7 11.5-.4 14.2 3c2.3 2.9 2.3 7.1 0 10l5.5 5.5z" class="st0"/></symbol><symbol id="icon-mail" viewBox="0 0 21 21"><path fill-rule="evenodd" d="M14.13 9.97C14 7.65 12.28 6.25 10.2 6.25h-.08c-2.4 0-3.73 1.9-3.73 4.03 0 2.4 1.6 3.92 3.72 3.92 2.35 0 3.9-1.73 4-3.76v-.47zm-4-5.8c1.6 0 3.12.72 4.23 1.83 0-.53.36-.93.85-.93h.14c.78 0 .94.73.94.96v8.3c-.05.53.56.8.9.46 1.34-1.38 2.93-7.04-.82-10.3-3.5-3.07-8.2-2.57-10.7-.85-2.64 1.83-4.34 5.87-2.7 9.67 1.8 4.14 6.95 5.38 10 4.15 1.56-.63 2.27 1.46.66 2.15-2.42 1.03-9.18.92-12.34-4.54C-.85 11.38-.74 4.9 4.92 1.54 9.25-1.04 14.95-.32 18.4 3.27c3.6 3.75 3.38 10.78-.13 13.5-1.6 1.25-3.95.04-3.93-1.77l-.02-.6a5.9 5.9 0 0 1-4.18 1.75c-3.17 0-5.97-2.8-5.97-5.95 0-3.2 2.8-6.02 5.97-6.02z"/></symbol><symbol id="icon-money_circle" viewBox="0 0 512 512"><title>money_circle</title><path d="M437 75A256 256 0 0 0 75 437 256 256 0 0 0 437 75zM256 482C131.38 482 30 380.62 30 256S131.38 30 256 30s226 101.38 226 226-101.38 226-226 226zM272.07 241h-32.14a33.2 33.2 0 0 1 0-66.4h64.27a15 15 0 0 0 0-30H271v-33.2a15 15 0 1 0-30 0v33.2h-1.07a63.2 63.2 0 0 0 0 126.4h32.14a33.2 33.2 0 0 1 0 66.4H207.8a15 15 0 0 0 0 30H241v33.2a15 15 0 0 0 30 0v-33.2h1.07a63.2 63.2 0 0 0 0-126.4z"/></symbol><symbol id="icon-ok" viewBox="0 0 14 22"><path fill-rule="evenodd" d="M5.52 15.5c-1.7-.18-3.24-.6-4.56-1.63-.16-.13-.33-.25-.48-.4-.57-.55-.63-1.18-.18-1.84.4-.56 1.05-.7 1.73-.38.13.06.26.14.38.22 2.46 1.68 5.83 1.73 8.3.07.24-.18.5-.34.8-.4.6-.16 1.14.05 1.45.57.36.6.36 1.17-.1 1.62-.67.7-1.5 1.2-2.4 1.56-.86.33-1.8.5-2.73.6.14.17.2.24.3.33 1.26 1.28 2.53 2.55 3.8 3.83.42.43.5.97.28 1.48-.26.56-.84.92-1.4.9-.37-.04-.65-.22-.9-.47-.96-.96-1.93-1.9-2.87-2.88-.27-.3-.4-.24-.64 0-.97 1-1.95 1.98-2.93 2.94-.44.43-.97.5-1.48.26-.56-.26-.9-.82-.88-1.38.02-.37.2-.66.47-.92 1.24-1.25 2.5-2.5 3.74-3.76.1-.1.16-.17.28-.3zm1.04-4.37c-3.04 0-5.54-2.53-5.52-5.58C1.06 2.48 3.56 0 6.64 0c3.07 0 5.54 2.53 5.52 5.64 0 3.04-2.52 5.5-5.6 5.5zm2.77-5.57A2.7 2.7 0 0 0 6.6 2.84 2.7 2.7 0 0 0 3.9 5.6a2.7 2.7 0 0 0 2.74 2.7 2.7 2.7 0 0 0 2.7-2.74z"/></symbol><symbol id="icon-percentage" viewBox="0 0 491.29 512"><title>percentage</title><path d="M467.6 262.63a15 15 0 0 1 0-13.26l19.1-39.06a44.46 44.46 0 0 0-19.18-59l-38.4-20.4a15 15 0 0 1-7.8-10.73l-7.52-42.82a44.45 44.45 0 0 0-50.2-36.48l-43 6.1a15 15 0 0 1-12.63-4.1l-31.3-30.24a44.43 44.43 0 0 0-62.06 0l-31.24 30.23a15 15 0 0 1-12.6 4.14l-43-6.1a44.43 44.43 0 0 0-50.27 36.45L70 120.17a15 15 0 0 1-7.8 10.73l-38.43 20.38a44.46 44.46 0 0 0-19.18 59l19.1 39.06a15 15 0 0 1 0 13.26L4.6 301.7a44.44 44.44 0 0 0 19.17 59l38.4 20.4A15 15 0 0 1 70 391.83l7.52 42.83a44.42 44.42 0 0 0 43.8 36.93 46.34 46.34 0 0 0 6.4-.46l43.06-6.1a15 15 0 0 1 12.6 4.1l31.26 30.24a44.46 44.46 0 0 0 62.06 0l31.26-30.23a15 15 0 0 1 12.6-4.1l43 6.1a44.45 44.45 0 0 0 50.22-36.5l7.5-42.82a15 15 0 0 1 7.8-10.73l38.42-20.38a44.45 44.45 0 0 0 19.18-59zm-26.53 13l19.1 39.07a15 15 0 0 1-6.5 20l-38.4 20.3a44.33 44.33 0 0 0-23 31.72l-7.52 42.83a15 15 0 0 1-17 12.34l-43.06-6.1a44.32 44.32 0 0 0-37.3 12.1l-31.24 30.24a15 15 0 0 1-21 0L203.9 447.9a44.28 44.28 0 0 0-30.9-12.54 45.55 45.55 0 0 0-6.36.45l-43.05 6.1a15.05 15.05 0 0 1-17-12.34l-7.52-42.83A44.33 44.33 0 0 0 76 355l-38.4-20.37a15 15 0 0 1-6.48-20l19.1-39.07a44.34 44.34 0 0 0 0-39.2l-19.1-39.06a15 15 0 0 1 6.5-20L76 157a44.36 44.36 0 0 0 23-31.7l7.5-42.84a15 15 0 0 1 17-12.34l43.06 6.1a44.34 44.34 0 0 0 37.28-12.13l31.25-30.24a15.05 15.05 0 0 1 21 0l31.24 30.23a44.36 44.36 0 0 0 37.33 12.1l43.06-6.1a15 15 0 0 1 17 12.35l7.52 42.83a44.33 44.33 0 0 0 23 31.7l38.4 20.4a15.05 15.05 0 0 1 6.5 20l-19.1 39.05a44.34 44.34 0 0 0 .02 39.17zM353.53 148.12a14.76 14.76 0 0 0-20.88 0L137.75 343a14.76 14.76 0 0 0 20.9 20.88L353.52 169a14.77 14.77 0 0 0 0-20.88zM186.58 231.4a54.14 54.14 0 1 0-54.14-54.15 54.2 54.2 0 0 0 54.14 54.14zm0-78.75a24.6 24.6 0 1 1-24.58 24.6 24.64 24.64 0 0 1 24.58-24.6zM304.7 280.6a54.14 54.14 0 1 0 54.14 54.15 54.2 54.2 0 0 0-54.14-54.14zm0 78.76a24.6 24.6 0 1 1 24.6-24.6 24.64 24.64 0 0 1-24.6 24.6z"/></symbol><symbol id="icon-person" viewBox="0 0 328.6 386.32"><title>person</title><path d="M162.9 208.16h2.56c23.44-.4 42.4-8.64 56.4-24.4C252.66 149 247.54 89.52 247 83.84c-2-42.64-22.16-63-38.8-72.56-12.4-7.12-26.88-11-43-11.28h-1.36c-8.88 0-26.32 1.44-43 11S83.46 40.88 81.46 83.84c-.56 5.68-5.68 65.2 25.12 99.92 13.92 15.76 32.88 24 56.32 24.4zM102.82 85.84c0-.24.08-.48.08-.64 2.64-57.36 43.36-63.52 60.8-63.52h1c21.6.48 58.32 9.28 60.8 63.52a1.56 1.56 0 0 0 .08.64c.08.56 5.68 55-19.76 83.6-10.08 11.36-23.52 17-41.2 17.12h-.8c-17.6-.16-31.12-5.76-41.12-17.12-25.4-28.44-19.96-83.12-19.88-83.6zM328.58 306.88v-.24c0-.64-.08-1.28-.08-2-.48-15.84-1.52-52.88-36.24-64.72l-.8-.24c-36.08-9.2-66.08-30-66.4-30.24a10.8 10.8 0 0 0-12.4 17.68c1.36 1 33.2 23.12 73 33.36 18.64 6.64 20.72 26.56 21.28 44.8a16.07 16.07 0 0 0 .08 2c.08 7.2-.4 18.32-1.68 24.72-13 7.36-63.76 32.8-141 32.8-77 0-128.08-25.52-141.12-32.88-1.28-6.4-1.84-17.52-1.68-24.72 0-.64.08-1.28.08-2 .56-18.2 2.64-38.2 21.28-44.8 39.84-10.24 71.68-32.48 73-33.36a10.8 10.8 0 1 0-12.4-17.68c-.32.24-30.16 21-66.4 30.24-.32.08-.56.16-.8.24C1.62 251.76.58 288.8.1 304.56a16.07 16.07 0 0 1-.08 2v.24C-.06 311-.14 332.32 4.1 343a10.26 10.26 0 0 0 4.16 5c2.4 1.6 59.92 38.24 156.16 38.24S318.18 349.52 320.58 348a10.7 10.7 0 0 0 4.16-5c4-10.64 3.92-32 3.84-36.16z"/></symbol><symbol id="icon-question" viewBox="0 0 512 512"><title>question</title><path d="M475.6 512a36.84 36.84 0 0 1-12-2l-102.24-35.16a251.1 251.1 0 0 1-110.6 25.9h-.4A250.43 250.43 0 0 1 154.67 19a250.45 250.45 0 0 1 320.18 342.36L510 463.66A36.5 36.5 0 0 1 475.6 512zm-115.4-68.8a15.2 15.2 0 0 1 4.92.84l108.4 37.24a6.1 6.1 0 0 0 7.76-7.76L444 365.12a15.2 15.2 0 0 1 .94-12 220.57 220.57 0 0 0 25.42-102.37C470.56 131.13 373.48 32.28 254 30.4A220 220 0 0 0 30.38 254c1.9 119.53 100.8 216.63 220.34 216.44A220.25 220.25 0 0 0 353.1 445a15.17 15.17 0 0 1 7.1-1.8zM247.9 393.1c7.95 0 15.55-7 15.2-15.17s-6.68-15.18-15.2-15.18c-7.93 0-15.54 7-15.17 15.18s6.67 15.17 15.18 15.17zM247.9 340.6a15.18 15.18 0 0 1-15.17-15.17v-61.9a15.18 15.18 0 0 1 15.18-15.18 45.16 45.16 0 1 0-45.15-45.16 15.18 15.18 0 0 1-30.36 0 75.52 75.52 0 1 1 90.7 74v48.25a15.18 15.18 0 0 1-15.2 15.16z"/></symbol><symbol id="icon-recurs" viewBox="0 0 358.2 391.77"><title>recurs</title><path d="M72.94 77.7c57.84-52.33 144.4-53.13 203-5.37L229.5 74.1a10.8 10.8 0 0 0 .4 21.6h.4l71.36-2.65a10.78 10.78 0 0 0 10.4-10.8V81l-2.64-70.56a10.8 10.8 0 1 0-21.6.8l1.68 44.24a177.63 177.63 0 0 0-231 6.24A177.7 177.7 0 0 0 5 235.37a10.75 10.75 0 0 0 10.48 8.24 9.36 9.36 0 0 0 2.56-.3 10.82 10.82 0 0 0 7.92-13 156.1 156.1 0 0 1 47-152.57zM353.18 156.4a10.8 10.8 0 1 0-21 5.13A156.06 156.06 0 0 1 80.94 318.4l47-4.23a10.8 10.8 0 0 0-2-21.52l-71.12 6.4a10.8 10.8 0 0 0-9.76 11.76l6.4 71.13a10.78 10.78 0 0 0 10.72 9.84 3.9 3.9 0 0 0 1-.08 10.8 10.8 0 0 0 9.76-11.77l-3.84-43.28a176.44 176.44 0 0 0 102.64 39.12c3 .16 6.08.24 9 .24a177.66 177.66 0 0 0 172.4-219.6z"/></symbol><symbol id="icon-search" viewBox="0 0 20.7 21.7"><style>.st0{fill:#929292}</style><title/><g id="Page-1"><g id="icon-111-search"><path id="search" d="M13.4 15.4c-1.4 1-3.1 1.6-4.9 1.6C3.8 17 0 13.2 0 8.5S3.8 0 8.5 0 17 3.8 17 8.5c0 2.3-1 4.5-2.5 6l6 6c.3.3.3.7 0 1-.3.3-.7.3-1 0l-6.1-6.1zm-4.9.6c4.1 0 7.5-3.4 7.5-7.5S12.6 1 8.5 1 1 4.4 1 8.5 4.4 16 8.5 16z" class="st0"/></g></g></symbol><symbol id="icon-security" viewBox="-41 0 374 374.10622"><path d="M287.66 75.75L147.06.82a7 7 0 0 0-6.66.04L3.7 75.78a7 7 0 0 0-3.65 6.14v97.87C.15 260.23 47.8 333 121.5 365.24l19 8.27a7 7 0 0 0 5.56 0l21.38-9.22c75.08-31.54 123.92-105.02 123.93-186.45V81.93a7 7 0 0 0-3.7-6.18zm-10.3 102.1c0 75.82-45.5 144.23-115.4 173.57l-.05.02-18.6 8.04-16.2-7.06c-68.6-30-112.97-97.74-113.05-172.63V86.06L143.8 14.95l133.57 71.17zm0 0M92.17 175.25a7 7 0 0 0-9.87-.77 7 7 0 0 0-.78 9.86l36.98 43.3a7 7 0 0 0 9.73.9l86.12-70.07a7 7 0 0 0-8.83-10.86l-80.82 65.75zm0 0"/></symbol><symbol id="icon-soccer-ball" viewBox="0 0 512 512"><path d="M462.4 104.6C421.9 49.46 362.43 13.4 294.85 3.02 227.28-7.35 159.7 9.2 104.58 49.66 49.46 90.13 13.38 149.62 3.02 217.2c-9 58.67 2.3 117.33 31.9 167.85l.07.12a260.4 260.4 0 0 0 14.66 22.3C85.7 456.6 138.18 491.3 197.4 505.2c2.7.64 5.42 1.2 8.13 1.76.56.16 1.14.27 1.73.33a256.83 256.83 0 0 0 48.83 4.7c16.4 0 32.78-1.6 48.87-4.72.47-.06.95-.15 1.4-.27 22.37-4.46 44.16-11.9 64.72-22.28 4.92-2.5 6.9-8.5 4.42-13.43-2.5-4.94-8.5-6.92-13.44-4.43a238.17 238.17 0 0 1-37.94 15.22l41.46-71.9 81.17-15.24a230.84 230.84 0 0 1-23.62 27.7c-3.9 3.9-3.9 10.24 0 14.14 3.9 3.9 10.24 3.9 14.14 0 15.3-15.3 28.46-32.42 39.3-50.87.1-.13.17-.26.24-.4a256.64 256.64 0 0 0 33.33-99.15c.04-.25.07-.5.1-.74.34-3.05.66-6.1.9-9.17 4.94-61.25-12.4-122.28-48.8-171.88zM291.8 22.8c51.8 7.94 98.44 32.3 134.13 69.48l-12.2 104.9-78.4 17.6-69.1-50.22v-75.1l15.4-11.03c4.5-3.22 5.52-9.47 2.3-13.96-3.2-4.48-9.46-5.5-13.95-2.3L255.6 72.5l-68.88-42.15c33.6-10.34 69.34-13.05 105.1-7.56zM190.65 229.32l32.56-23.66 32.58-23.65 65.13 47.32-24.87 76.56h-80.5l-24.88-76.56zM116.42 65.8a237.83 237.83 0 0 1 46.4-26.63l82.96 50.76v74.63l-69.1 50.2-78.7-17.66L81.9 96.66a238.4 238.4 0 0 1 34.5-30.87zM22.78 220.22c5.8-37.8 20.33-72.82 42.18-102.86l13.53 84.57-58.46 58.96a239.2 239.2 0 0 1 2.74-40.67zm-.74 67.06l70.34-70.96 78.76 17.68 26.14 80.43-49.2 75.7-97.98-18.8c-14.72-26.2-24.17-54.64-28.06-84.06zm43.74 108.34c-.26-.36-.5-.72-.77-1.08l81.43 15.63 41.6 72.08c-47.57-14.34-90.82-43.8-122.25-86.64zm231.53 92.94a234.43 234.43 0 0 1-82.5.1l-50.27-87.14 49.16-75.64h84.65l49.16 75.64-50.2 87.04zm164.24-116.74l-97.57 18.33-49.2-75.72 26.13-80.43 78.7-17.67L489.4 288c-3.95 29.2-13.27 57.73-27.84 83.84zm29.93-110.35l-58.12-59.7 10.33-88.8c.87 1.13 1.73 2.27 2.58 3.42 31.58 43.03 46.42 94.3 45.2 145.07zM310.85 43.2a10.07 10.07 0 0 0-7.07-2.93c-2.63 0-5.2 1.07-7.06 2.93a10.07 10.07 0 0 0-2.93 7.06c0 2.64 1.06 5.2 2.92 7.07a10.03 10.03 0 0 0 7.06 2.93c2.63 0 5.2-1.06 7.07-2.93a10.07 10.07 0 0 0 2.93-7.06c0-2.64-1.07-5.22-2.93-7.07zM407.44 447.64c-1.86-1.86-4.44-2.93-7.07-2.93s-5.2 1.08-7.07 2.94a10.07 10.07 0 0 0-2.93 7.07c0 2.64 1.07 5.22 2.93 7.08a10.03 10.03 0 0 0 7.07 2.93c2.63 0 5.2-1.05 7.07-2.92a10.07 10.07 0 0 0 2.93-7.07c0-2.62-1.07-5.2-2.93-7.06z"/></symbol><symbol id="icon-spade" viewBox="0 0 512 512"><title>spade</title><path d="M330.35 254.9c0 22-15.23 40.55-37.34 40.55a32.6 32.6 0 0 1-18.75-5.72A58.56 58.56 0 0 0 290 346h-68.56a58.5 58.5 0 0 0 15.76-56.3 32.86 32.86 0 0 1-18.88 5.77c-22.1 0-37.34-18.56-37.34-40.54 0-17.3 9.86-31.3 26.53-47.2 12.6-12 29.1-25.2 48.16-41.7 8.1 7 15.7 13.4 22.77 19.36 31.6 26.7 51.9 44.68 51.9 69.53zM273.1 313.1a58.15 58.15 0 0 1-16.9 32.9H290a58.37 58.37 0 0 1-16.88-32.87zM256 0C118.37 0 0 117.45 0 256c0 138 117.82 256 256 256 138 0 256-117.82 256-256C512 118 394.18 0 256 0zm192.73 246c-2.32-43.76-19.82-85.22-50-118.55L428.6 97.6c38.07 41.3 60.7 94.44 63.2 148.4zM256 429c-93.66 0-173-79.2-173-173S162.2 83 256 83s173 79.2 173 173-79.2 173-173 173zM414.4 83.44l-29.85 29.87c-33.33-30.2-74.8-47.7-118.55-50v-43c54 2.5 107.1 25.13 148.4 63.2zM246 20.24v43c-43.76 2.33-85.22 19.83-118.55 50L97.6 83.45c41.3-38.07 94.4-60.7 148.4-63.2zM83.44 97.6l29.87 29.85c-30.2 33.33-47.7 74.8-50 118.55h-43c2.5-54 25.13-107.1 63.2-148.4zM20.24 266h43c2.33 43.76 19.83 85.22 50 118.55l-29.8 29.86C45.37 373.1 22.74 320 20.24 266zM97.6 428.55l29.85-29.86c33.33 30.2 74.8 47.7 118.55 50v43c-54-2.5-107.1-25.13-148.4-63.2zm168.4 63.2v-43c43.76-2.32 85.22-19.82 118.55-50l29.86 29.86c-41.3 38.03-94.4 60.65-148.4 63.15zm162.55-77.34l-29.86-29.85c30.2-33.33 47.7-74.9 50-118.65h43c-2.5 54-25.13 107.2-63.2 148.5zM293.26 305.45c26.54 0 47.34-22.2 47.34-50.54 0-37-37.2-61-78.13-96.46a10 10 0 0 0-13.1 0c-43.54 37.74-78.13 60.36-78.13 96.47 0 28.35 20.8 50.55 47.34 50.55a44.4 44.4 0 0 0 10.7-1.28v.05a48 48 0 0 1-14.56 34.6 10 10 0 0 0 7 17.16h68.48a10 10 0 0 0 7-17.15 48.1 48.1 0 0 1-14.56-34.63 44.33 44.33 0 0 0 10.57 1.25zm-13.12-24a10 10 0 0 0-15.33 5.8 69.07 69.07 0 0 0 5.66 48.8h-28.94a69.18 69.18 0 0 0 5.63-48.86 10 10 0 0 0-15.32-5.8 22.86 22.86 0 0 1-13.25 4c-15.6 0-27.34-13.12-27.34-30.53 0-24.06 26.06-42.7 64.68-75.72 39.28 33.6 64.68 51.85 64.68 75.76 0 17.42-11.75 30.55-27.34 30.55a22.5 22.5 0 0 1-13.12-4z"/></symbol><symbol id="icon-star-hover-01" viewBox="0 0 512 512"><path d="M457.37 220.35l-100.2 88 29.33 130.1A10.64 10.64 0 0 1 370.68 450L256 381.87l-89.08 52.9-25.6 15.23a10.64 10.64 0 0 1-15.82-11.5l29.32-130.1-100.2-88a10.64 10.64 0 0 1 6-18.58l132.8-12.32L246.2 67a10.64 10.64 0 0 1 19.55 0l26.1 60.57 26.66 61.92 132.8 12.3a10.64 10.64 0 0 1 6.07 18.55z" class="cls-3"/></symbol><symbol id="icon-star-outline-01" viewBox="0 0 512 512"><path d="M457.37 220.35l-100.2 88 29.33 130.1A10.64 10.64 0 0 1 370.68 450L256 381.87l-89.08 52.9-25.6 15.23a10.64 10.64 0 0 1-15.82-11.5l29.32-130.1-100.2-88a10.64 10.64 0 0 1 6-18.58l132.8-12.32L246.2 67a10.64 10.64 0 0 1 19.55 0l26.1 60.57 26.66 61.92 132.8 12.3a10.64 10.64 0 0 1 6.07 18.55z" class="cls-3"/></symbol><symbol id="icon-star" viewBox="0 0 512 504.38"><title>star</title><path d="M375.1 434a33.62 33.62 0 0 1-15.75-3.9l-100.2-52.7a6.8 6.8 0 0 0-6.3 0l-100.2 52.7a33.76 33.76 0 0 1-49-35.6l19.15-111.6a6.75 6.75 0 0 0-1.94-6l-81.06-79a33.76 33.76 0 0 1 18.7-57.6l112-16.27a6.74 6.74 0 0 0 5.1-3.7l50.1-101.5a33.77 33.77 0 0 1 60.55 0l50.1 101.5a6.76 6.76 0 0 0 5.08 3.7l112 16.28a33.77 33.77 0 0 1 18.72 57.6l-81.07 79a6.78 6.78 0 0 0-1.94 6l19.14 111.57a33.82 33.82 0 0 1-33.2 39.53zM256 349.6a33.85 33.85 0 0 1 15.72 3.88l100.2 52.68a6.75 6.75 0 0 0 9.8-7.12l-19.14-111.57a33.76 33.76 0 0 1 9.7-29.9l81.07-79A6.75 6.75 0 0 0 449.6 167l-112-16.28a33.75 33.75 0 0 1-25.4-18.47L262.05 30.78a6.76 6.76 0 0 0-12.1 0l-50.1 101.52a33.77 33.77 0 0 1-25.44 18.47L62.4 167a6.75 6.75 0 0 0-3.75 11.52l81.07 79a33.75 33.75 0 0 1 9.7 29.88L130.3 399a6.75 6.75 0 0 0 9.8 7.12l100.2-52.68a33.84 33.84 0 0 1 15.7-3.84zM391.5 63a13.5 13.5 0 0 1-10.92-21.44l14.34-19.76a13.5 13.5 0 0 1 21.85 15.88L402.43 57.4A13.47 13.47 0 0 1 391.5 63zM120.45 62.9a13.48 13.48 0 0 1-10.94-5.57L95.18 37.6A13.5 13.5 0 0 1 117 21.72l14.34 19.74a13.5 13.5 0 0 1-10.9 21.44zM13.5 328.24a13.5 13.5 0 0 1-4.16-26.35l23.2-7.55A13.5 13.5 0 0 1 40.87 320l-23.2 7.54a13.45 13.45 0 0 1-4.17.7zM256 504.38a13.5 13.5 0 0 1-13.5-13.5v-24.4a13.5 13.5 0 0 1 27 0v24.4a13.5 13.5 0 0 1-13.5 13.5zM498.5 328.26a13.45 13.45 0 0 1-4.18-.66l-23.2-7.54a13.5 13.5 0 0 1 8.35-25.7l23.2 7.55a13.5 13.5 0 0 1-4.18 26.36z"/></symbol><symbol id="icon-support" viewBox="0 0 448 448"><path d="M384 172.4C384 83.6 312.4 12 224 12S64 83.6 64 172v.4C28.4 174.4 0 204 0 240v8c0 37.6 30.4 68 68 68h3.6l28.4 45.2c20 32 54 50.8 91.6 50.8h5.6c3.6 13.6 16 24 30.8 24 17.6 0 32-14.4 32-32s-14.4-32-32-32c-14.8 0-27.2 10.4-30.8 24h-5.6c-32 0-61.2-16.4-78-43.6L90.4 316H96c8.8 0 16-7.2 16-16V188c0-8.8-7.2-16-16-16H80c0-79.6 64.4-144 144-144s144 64.4 144 144h-16c-8.8 0-16 7.2-16 16v112c0 8.8 7.2 16 16 16h28c37.6 0 68-30.4 68-68v-8c0-36-28.4-65.6-64-67.6zM228 388c8.8 0 16 7.2 16 16s-7.2 16-16 16-16-7.2-16-16 7.2-16 16-16zM96 188v112H68c-28.8 0-52-23.2-52-52v-8c0-28.8 23.2-52 52-52h28zm336 60c0 28.8-23.2 52-52 52h-28V188h28c28.8 0 52 23.2 52 52v8zM290.4 72.4c-.8-.4-2-1.2-3.2-2-1.2-.8-2.4-1.6-3.2-2-3.6-2.4-8.8-1.2-10.8 2.8S272 79.6 276 82c.8.4 2 1.2 3.2 2s2.4 1.6 3.6 2c1.2.8 2.8 1.2 4 1.2 2.8 0 5.2-1.2 6.8-4 2-3.6.8-8.4-3.2-10.8zM224 52c-34 0-66 14.8-88 40.4-2.8 3.2-2.4 8.4.8 11.2 1.6 1.2 3.2 2 5.2 2 2.4 0 4.4-.8 6-2.8 19.2-22 46.8-34.8 76-34.8 7.2 0 14.4.8 21.6 2.4 4.4.8 8.4-2 9.6-6s-2-8.4-6-9.6c-8.4-2-16.8-2.8-25.2-2.8z"/></symbol><symbol id="icon-twitter" viewBox="0 0 56.693 56.693"><path d="M52.84 15.06a20.1 20.1 0 0 1-5.8 1.6 10.13 10.13 0 0 0 4.44-5.6 20.23 20.23 0 0 1-6.42 2.46 10.1 10.1 0 0 0-7.38-3.2c-5.58 0-10.1 4.53-10.1 10.1 0 .8.08 1.57.26 2.32C19.44 22.3 12 18.3 7 12.18a10.05 10.05 0 0 0-1.36 5.08c0 3.5 1.78 6.6 4.5 8.4a10.08 10.08 0 0 1-4.6-1.25v.13c0 4.9 3.5 8.98 8.12 9.9a10.16 10.16 0 0 1-4.56.18c1.28 4.03 5.02 6.95 9.44 7.03A20.28 20.28 0 0 1 6 45.96c-.83 0-1.63-.05-2.43-.14a28.6 28.6 0 0 0 15.5 4.54c18.6 0 28.75-15.4 28.75-28.76 0-.43 0-.87-.02-1.3a20.47 20.47 0 0 0 5.04-5.24z"/></symbol><symbol id="icon-user" viewBox="0 0 294.812 294.812"><path d="M251.65 43.16c-57.48-57.48-151-57.48-208.48 0C23 63.33 9.2 88.66 3.27 116.43c-5.77 27.04-3.88 55.05 5.47 81a6 6 0 1 0 11.3-4.06C11.43 169.52 9.7 143.8 15 118.94c5.46-25.5 18.13-48.77 36.65-67.3 52.8-52.8 138.72-52.8 191.52 0 25.14 25.15 39.22 58.58 39.63 94.13.42 35.48-12.8 69.17-37.23 94.87-.3.3-.58.6-.86.9-.5.55-1 1.1-1.53 1.62-52.8 52.8-138.7 52.8-191.52 0a44.08 44.08 0 0 1-.82-.85c-.02-.54-.03-1.1-.03-1.63 0-1.2.03-2.4.07-3.6 0-.4.04-.8.06-1.2.04-.8.08-1.6.14-2.4.03-.47.08-.93.13-1.4.06-.72.12-1.44.2-2.15.05-.5.12-1 .2-1.5.07-.67.15-1.35.25-2.02.08-.5.17-1.02.25-1.53.1-.65.2-1.3.33-1.96.1-.5.2-1 .3-1.53.14-.64.27-1.28.4-1.9.13-.53.25-1.04.38-1.55.16-.62.3-1.25.47-1.87.13-.5.28-1.02.42-1.53.16-.62.33-1.23.5-1.84.17-.5.33-1 .5-1.52.2-.6.38-1.2.58-1.8.17-.5.35-1 .53-1.5.23-.6.44-1.2.66-1.77.2-.5.4-1 .6-1.5.22-.58.46-1.16.7-1.73.2-.5.42-.98.64-1.46.25-.57.5-1.13.77-1.7.23-.48.46-.96.7-1.44.26-.56.54-1.12.82-1.67a97.52 97.52 0 0 1 2.4-4.44 97.85 97.85 0 0 1 3.7-5.85c.34-.5.7-1.02 1.06-1.53.3-.43.6-.86.92-1.28a93.12 93.12 0 0 1 1.14-1.52c.3-.4.63-.83.95-1.24.4-.5.8-.98 1.2-1.47.33-.4.66-.8 1-1.2a95.68 95.68 0 0 1 1.26-1.44c.34-.4.68-.77 1.03-1.15a92.1 92.1 0 0 1 1.32-1.4c.35-.38.7-.75 1.06-1.12.46-.46.92-.9 1.4-1.37.35-.36.7-.72 1.08-1.07.48-.45.97-.9 1.46-1.34.37-.34.74-.68 1.1-1.02.52-.44 1.03-.87 1.54-1.3.38-.32.75-.64 1.13-.95.53-.44 1.08-.86 1.62-1.28.38-.3.75-.6 1.13-.9.57-.42 1.16-.84 1.74-1.26.37-.28.73-.55 1.1-.8.64-.46 1.3-.9 1.95-1.33.3-.22.63-.44.96-.65a96.73 96.73 0 0 1 2.6-1.62c.13-.1.26-.17.4-.26a98.84 98.84 0 0 1 3.07-1.76c.36-.2.72-.38 1.08-.57.7-.36 1.4-.73 2.1-1.08.44-.23.9-.44 1.35-.66.57-.28 1.14-.56 1.72-.82 10.88 10.38 25.4 16.27 40.44 16.27 15.07 0 29.58-5.88 40.45-16.27 21.23 9.83 38.6 27.46 48.04 48.9a6 6 0 1 0 10.97-4.84c-10.3-23.46-28.28-42.2-51-53.5 6.58-9.68 10.15-21.1 10.15-32.9 0-32.32-26.3-58.6-58.6-58.6a6 6 0 0 0 0 12c25.7 0 46.6 20.9 46.6 46.6 0 11.5-4.27 22.56-12.02 31.15-8.86 9.83-21.46 15.46-34.6 15.46s-25.72-5.62-34.57-15.44c-7.76-8.6-12.03-19.67-12.03-31.16 0-12.55 4.9-24.3 13.83-33.14a6 6 0 1 0-8.44-8.53c-11.22 11.1-17.4 25.9-17.4 41.66 0 11.77 3.56 23.2 10.15 32.87-.06.02-.12.06-.18.1-.46.22-.92.47-1.38.7-.73.38-1.44.74-2.14 1.12-.5.26-.98.55-1.47.82-.67.38-1.32.74-1.97 1.13-.5.3-1 .6-1.5.9-.6.4-1.23.77-1.84 1.16-.5.34-1 .67-1.5 1-.58.4-1.18.8-1.76 1.2-.5.33-.98.68-1.46 1.03-.57.4-1.14.83-1.7 1.25-.48.36-.96.72-1.43 1.1a103.25 103.25 0 0 0-4.6 3.78 101.47 101.47 0 0 0-2.9 2.6c-.42.4-.86.8-1.3 1.22-.5.48-.98.97-1.47 1.46-.42.42-.83.84-1.24 1.27-.5.5-.97 1.02-1.44 1.53-.4.43-.8.86-1.2 1.3-.46.52-.92 1.06-1.4 1.6-.36.43-.74.86-1.1 1.3-.47.56-.93 1.13-1.4 1.7-.33.43-.68.85-1 1.28-.5.63-.96 1.26-1.43 1.9-.3.4-.6.78-.88 1.18a106.27 106.27 0 0 0-1.75 2.48c-.15.22-.3.44-.45.66a107.7 107.7 0 0 0-2.06 3.2c-.24.38-.45.76-.68 1.13-.43.72-.87 1.44-1.28 2.17-.26.45-.5.92-.76 1.37-.37.65-.73 1.3-1.08 1.98-.26.5-.5 1-.76 1.5-.33.64-.66 1.28-.97 1.93-.24.53-.48 1.06-.72 1.58-.3.64-.6 1.28-.87 1.93-.23.55-.45 1.1-.68 1.62-.27.65-.54 1.3-.8 1.95-.2.55-.42 1.1-.63 1.65-.25.65-.5 1.3-.73 1.97a119.26 119.26 0 0 0-1.23 3.66 111.87 111.87 0 0 0-1.56 5.46 108.9 108.9 0 0 0-.5 2.06 103 103 0 0 0-.4 1.73c-.17.7-.3 1.4-.45 2.1-.12.6-.23 1.17-.34 1.75-.14.7-.26 1.44-.37 2.16-.1.58-.2 1.15-.28 1.72-.1.75-.2 1.5-.3 2.25-.06.55-.14 1.1-.2 1.66-.08.8-.15 1.58-.22 2.37-.04.53-.1 1.05-.14 1.58-.07.9-.1 1.77-.16 2.66-.02.44-.05.88-.07 1.32a111.36 111.36 0 0 0-.07 4c0 1.46.05 2.83.1 4.35.02.36.07.7.14 1.03v.08c.1.33.2.65.32.95l.03.1c.12.3.28.58.45.85l.07.1c.17.27.37.52.6.75 0 .02.02.04.03.06l.8.85a75.6 75.6 0 0 0 1.82 1.9c28.74 28.74 66.5 43.1 104.24 43.1s75.5-14.36 104.25-43.1c.63-.62 1.22-1.26 1.82-1.9l.8-.84c26.58-27.96 40.98-64.64 40.53-103.27-.45-38.7-15.77-75.1-43.15-102.47z"/></symbol><symbol id="icon-vk" viewBox="0 0 13 16"><path fill-rule="evenodd" d="M7.5 9.37c-.52-.3-1.24-.3-1.83-.3H3.74v3.97H5.5c.67 0 1.5.05 2.07-.35.5-.36.8-1.05.8-1.7 0-.6-.35-1.33-.87-1.63zm-.73-3.4c.43-.32.66-.9.66-1.45 0-.58-.27-1.14-.77-1.44-.52-.3-1.47-.23-2.08-.23h-.84v3.5h1.1c.64 0 1.4.04 1.93-.38zM6.63 16H0V0h7.24c2.1 0 4.04 1.33 4.04 3.7 0 1.8-1.02 3.06-2.3 3.44v.05c1.9.4 3.28 1.43 3.28 3.95 0 2.33-1.6 4.85-5.63 4.85z"/></symbol><symbol id="icon-warning" viewBox="0 0 9.52 9.52"><title>warning_1</title><path d="M4.76 6.37A.72.72 0 1 1 4 7.1a.72.72 0 0 1 .76-.73zm-.6-.7v-4h1.2v4zM4.76 9.52a4.76 4.76 0 1 1 4.76-4.76 4.76 4.76 0 0 1-4.76 4.76zm0-9A4.26 4.26 0 1 0 9 4.76 4.26 4.26 0 0 0 4.76.5z"/></symbol></svg>